<?xml version="1.0" encoding="UTF-8" standalone="no"?>
<svg width="400" height="600" viewBox="0 0 400 600" fill="none" xmlns="http://www.w3.org/2000/svg">
  <!-- Background gradient -->
  <rect width="400" height="600" rx="12" fill="url(#paint0_linear)"/>
  
  <!-- Film reel icon -->
  <path d="M200 180C188.954 180 180 188.954 180 200C180 211.046 188.954 220 200 220C211.046 220 220 211.046 220 200C220 188.954 211.046 180 200 180ZM200 210C194.477 210 190 205.523 190 200C190 194.477 194.477 190 200 190C205.523 190 210 194.477 210 200C210 205.523 205.523 210 200 210Z" fill="white" fill-opacity="0.8"/>
  <path d="M260 180C248.954 180 240 188.954 240 200C240 211.046 248.954 220 260 220C271.046 220 280 211.046 280 200C280 188.954 271.046 180 260 180ZM260 210C254.477 210 250 205.523 250 200C250 194.477 254.477 190 260 190C265.523 190 270 194.477 270 200C270 205.523 265.523 210 260 210Z" fill="white" fill-opacity="0.8"/>
  <path d="M140 180C128.954 180 120 188.954 120 200C120 211.046 128.954 220 140 220C151.046 220 160 211.046 160 200C160 188.954 151.046 180 140 180ZM140 210C134.477 210 130 205.523 130 200C130 194.477 134.477 190 140 190C145.523 190 150 194.477 150 200C150 205.523 145.523 210 140 210Z" fill="white" fill-opacity="0.8"/>
  <path d="M200 240C188.954 240 180 248.954 180 260C180 271.046 188.954 280 200 280C211.046 280 220 271.046 220 260C220 248.954 211.046 240 200 240ZM200 270C194.477 270 190 265.523 190 260C190 254.477 194.477 250 200 250C205.523 250 210 254.477 210 260C210 265.523 205.523 270 200 270Z" fill="white" fill-opacity="0.8"/>
  <path d="M200 120C188.954 120 180 128.954 180 140C180 151.046 188.954 160 200 160C211.046 160 220 151.046 220 140C220 128.954 211.046 120 200 120ZM200 150C194.477 150 190 145.523 190 140C190 134.477 194.477 130 200 130C205.523 130 210 134.477 210 140C210 145.523 205.523 150 200 150Z" fill="white" fill-opacity="0.8"/>
  
  <!-- Camera icon -->
  <path d="M260 300H140C129 300 120 309 120 320V400C120 411 129 420 140 420H260C271 420 280 411 280 400V320C280 309 271 300 260 300ZM270 400C270 405.5 265.5 410 260 410H140C134.5 410 130 405.5 130 400V320C130 314.5 134.5 310 140 310H260C265.5 310 270 314.5 270 320V400ZM250 330L210 350V370L250 390V330Z" fill="white" fill-opacity="0.9"/>
  
  <!-- Text -->
  <text x="200" y="480" font-family="Arial, sans-serif" font-size="24" font-weight="bold" fill="white" text-anchor="middle">No Image Available</text>
  <text x="200" y="510" font-family="Arial, sans-serif" font-size="16" fill="white" fill-opacity="0.7" text-anchor="middle">KV Stream</text>
  
  <!-- Definitions -->
  <defs>
    <linearGradient id="paint0_linear" x1="0" y1="0" x2="400" y2="600" gradientUnits="userSpaceOnUse">
      <stop offset="0" stop-color="#6556CD"/>
      <stop offset="1" stop-color="#1F1E24"/>
    </linearGradient>
  </defs>
</svg>
